<?xml version="1.0" encoding="iso-8859-1"?>
<!-- Uploaded to: SVG Repo, www.svgrepo.com, Generator: SVG Repo Mixer Tools -->
<svg height="800px" width="800px" version="1.1" id="Layer_1" xmlns="http://www.w3.org/2000/svg" xmlns:xlink="http://www.w3.org/1999/xlink" 
	 viewBox="0 0 512.001 512.001" xml:space="preserve">
<path style="fill:#5D9BEB;" d="M0.001,256.006c0,141.395,114.606,255.998,255.996,255.994
	c141.398,0.004,256.004-114.598,256.004-255.994C512.009,114.61,397.395,0,255.996,0C114.606,0,0.001,114.614,0.001,256.006z"/>
<path style="fill:#4988DB;" d="M512.001,256.006c0-8.751-0.442-17.397-1.298-25.922c-3.395-3.494-83.391-83.114-83.899-83.587
	c-5.677-6.067-13.689-9.917-22.634-9.917h-68.453c-0.311-0.343-31.287-31.255-31.795-31.724c-2.943-3.545-7.193-5.61-12.335-5.61
	h-71.066c-10.012,0-16.734,7.735-16.734,19.243v18.091h-95.849c-17.142,0-31.085,13.94-31.085,31.084v214.099
	c0,8.945,3.852,16.958,9.917,22.633c0.476,0.508,95.633,95.471,97.415,97.199c0.081,0.085,0.161,0.171,0.243,0.256
	c22.714,6.599,46.724,10.15,71.568,10.15C397.395,512.004,512.001,397.402,512.001,256.006z"/>
<path style="fill:#F4F6F9;" d="M404.072,136.569h-95.821v-18.085c0-11.503-6.721-19.237-16.73-19.237h-71.043
	c-10.009,0-16.73,7.734-16.73,19.237v18.085h-95.821c-17.138,0-31.075,13.937-31.075,31.075v214.034
	c0,17.137,13.937,31.075,31.075,31.075h296.143c17.137,0,31.075-13.937,31.075-31.075V167.644
	C435.147,150.507,421.21,136.569,404.072,136.569z M166.427,151.498h179.147v246.326H166.427L166.427,151.498L166.427,151.498z
	 M151.498,397.824h-14.929V151.498h14.929V397.824z M360.503,151.498h14.929v246.326h-14.929V151.498z M218.678,118.483
	c0-4.308,1.305-4.308,1.801-4.308h71.043c0.496,0,1.801,0,1.801,4.308v18.085h-74.644V118.483z M91.783,381.678V167.644
	c0-8.9,7.246-16.146,16.146-16.146h13.712v246.326h-13.712C99.029,397.824,91.783,390.578,91.783,381.678z M420.218,381.678
	c0,8.9-7.246,16.146-16.146,16.146H390.36V151.498h13.712c8.9,0,16.146,7.246,16.146,16.146V381.678z"/>
</svg>