<!DOCTYPE svg PUBLIC "-//W3C//DTD SVG 1.1//EN" "http://www.w3.org/Graphics/SVG/1.1/DTD/svg11.dtd">
<!-- Uploaded to: SVG Repo, www.svgrepo.com, Transformed by: SVG Repo Mixer Tools -->
<svg width="256px" height="256px" viewBox="0 0 1024 1024" fill="#000000" class="icon" version="1.1" xmlns="http://www.w3.org/2000/svg">
<g id="SVGRepo_bgCarrier" stroke-width="0"/>
<g id="SVGRepo_tracerCarrier" stroke-linecap="round" stroke-linejoin="round"/>
<g id="SVGRepo_iconCarrier">
<path d="M471.994 1023.894c-142.784 0-250.588-27.714-303.532-78.016l-1.562-1.468c-62.816-51.848-80.36-149.484-44.694-248.73 40.256-111.992 153.28-231.67 349.788-231.67 196.52 0 309.56 119.678 349.818 231.686 35.664 99.23 18.122 196.868-44.694 248.73l-1.594 1.484c-53.02 50.286-160.812 77.984-303.53 77.984z m0-543.888c-188.212 0-296.314 114.21-334.728 221.096-33.368 92.808-17.73 183.476 39.82 230.982 0.562 0.468 1.342 1.204 2.39 2.204 49.974 47.458 153.842 73.61 292.518 73.61 138.596 0 242.482-26.134 292.516-73.594 1.062-1.016 1.876-1.766 2.422-2.218 57.55-47.506 73.188-138.174 39.82-230.982-38.414-106.888-146.532-221.098-334.758-221.098z" fill=""/>
<path d="M202.798 543.992a7.996 7.996 0 0 1-5.296-13.996c72.47-64.096 167.388-97.98 274.49-97.98s202.02 33.884 274.49 97.964a8.008 8.008 0 0 1 0.704 11.294c-2.968 3.342-8.03 3.608-11.292 0.704-69.502-61.472-160.766-93.964-263.9-93.964-103.136 0-194.382 32.492-263.898 93.98a7.956 7.956 0 0 1-5.298 1.998z" fill=""/>
<path d="M225.7 566.894a7.98 7.98 0 0 1-5.656-2.344l-22.902-22.9a7.996 7.996 0 1 1 11.31-11.31l22.902 22.902a7.994 7.994 0 0 1-5.654 13.652zM718.16 567.004a7.994 7.994 0 0 1-5.654-13.652l23.028-23.028a7.996 7.996 0 1 1 11.308 11.31l-23.026 23.026a7.974 7.974 0 0 1-5.656 2.344zM471.994 447.014a8 8 0 0 1-7.14-4.39l-29.15-57.582a7.988 7.988 0 0 1 3.532-10.748c3.906-1.968 8.748-0.422 10.748 3.53l29.15 57.582c2 3.936 0.42 8.748-3.532 10.748a8.066 8.066 0 0 1-3.608 0.86z" fill=""/>
<path d="M432.002 392.026c-17.638 0-31.994-14.358-31.994-31.994s14.356-31.994 31.994-31.994c17.636 0 31.992 14.356 31.992 31.994s-14.356 31.994-31.992 31.994z m0-47.99c-8.828 0-15.998 7.17-15.998 15.996s7.17 15.996 15.998 15.996c8.826 0 15.996-7.17 15.996-15.996s-7.17-15.996-15.996-15.996zM487.694 416.02a8.068 8.068 0 0 1-3.61-0.86 7.988 7.988 0 0 1-3.53-10.748l13.466-26.604a8.012 8.012 0 0 1 10.748-3.53 7.99 7.99 0 0 1 3.53 10.748l-13.466 26.604a8.014 8.014 0 0 1-7.138 4.39z" fill=""/>
<path d="M511.984 392.026c-17.636 0-31.994-14.358-31.994-31.994s14.356-31.994 31.994-31.994 31.994 14.356 31.994 31.994-14.356 31.994-31.994 31.994z m0-47.99c-8.826 0-15.996 7.17-15.996 15.996s7.17 15.996 15.996 15.996 15.998-7.17 15.998-15.996-7.172-15.996-15.998-15.996zM152.074 384.026c-44.1 0-79.982-35.884-79.982-79.984s35.882-79.984 79.982-79.984c44.102 0 79.984 35.884 79.984 79.984s-35.882 79.984-79.984 79.984z m0-143.97c-35.29 0-63.986 28.698-63.986 63.986s28.698 63.986 63.986 63.986c35.29 0 63.988-28.698 63.988-63.986s-28.698-63.986-63.988-63.986z" fill=""/>
<path d="M152.074 416.02c-44.1 0-79.982-35.882-79.982-79.984 0-4.42 3.578-7.998 7.998-7.998s7.998 3.578 7.998 7.998c0 35.29 28.698 63.988 63.986 63.988 35.29 0 63.988-28.698 63.988-63.988a7.994 7.994 0 0 1 8-7.998 7.994 7.994 0 0 1 7.998 7.998c-0.002 44.1-35.884 79.984-79.986 79.984z" fill=""/>
<path d="M80.09 344.036a7.994 7.994 0 0 1-7.998-8v-31.994c0-4.42 3.578-7.998 7.998-7.998s7.998 3.578 7.998 7.998v31.994c0 4.422-3.578 8-7.998 8zM224.06 344.036c-4.422 0-8-3.578-8-8v-31.994a7.994 7.994 0 0 1 8-7.998 7.994 7.994 0 0 1 7.998 7.998v31.994c0 4.422-3.578 8-7.998 8zM152.074 416.02a7.994 7.994 0 0 1-7.998-7.998v-31.994a7.994 7.994 0 0 1 7.998-7.998c4.422 0 8 3.578 8 7.998v31.994a7.994 7.994 0 0 1-8 7.998zM192.066 403.896a7.994 7.994 0 0 1-7.998-7.998v-31.994a7.994 7.994 0 0 1 7.998-7.998 7.994 7.994 0 0 1 7.998 7.998v31.994a7.992 7.992 0 0 1-7.998 7.998zM112.084 403.896a7.994 7.994 0 0 1-7.998-7.998v-31.994c0-4.42 3.578-7.998 7.998-7.998s8 3.578 8 7.998v31.994a7.996 7.996 0 0 1-8 7.998zM152.074 336.036a7.994 7.994 0 0 1-7.998-7.998v-47.99c0-4.42 3.578-8 7.998-8 4.422 0 8 3.578 8 8v47.99a7.994 7.994 0 0 1-8 7.998z" fill=""/>
<path d="M815.938 144.076H607.98a7.994 7.994 0 0 1-7.998-7.998 7.994 7.994 0 0 1 7.998-7.998h207.958a7.994 7.994 0 0 1 7.998 7.998 7.994 7.994 0 0 1-7.998 7.998zM814.282 96.086h-6.342c-4.422 0-8-3.578-8-7.998a7.994 7.994 0 0 1 8-7.998h6.342a7.994 7.994 0 0 1 7.998 7.998 7.994 7.994 0 0 1-7.998 7.998zM943.91 48.096H807.94c-4.422 0-8-3.578-8-7.998s3.578-7.998 8-7.998h135.97c4.422 0 7.998 3.578 7.998 7.998s-3.576 7.998-7.998 7.998zM815.938 336.036H607.98c-4.42 0-7.998-3.578-7.998-7.998s3.578-8 7.998-8h207.958c4.42 0 7.998 3.578 7.998 8s-3.578 7.998-7.998 7.998z" fill=""/>
<path d="M815.938 144.076a7.994 7.994 0 0 1-7.998-7.998 7.992 7.992 0 0 1 7.998-7.998c8.826 0 15.996-7.17 15.996-15.998 0-8.826-7.17-15.996-15.996-15.996a7.994 7.994 0 0 1-7.998-7.998 7.992 7.992 0 0 1 7.998-7.998c17.636 0 31.994 14.356 31.994 31.992 0 17.638-14.358 31.994-31.994 31.994z" fill=""/>
<path d="M807.94 96.086c-17.636 0-31.994-14.356-31.994-31.994 0-17.638 14.358-31.994 31.994-31.994 4.42 0 7.998 3.578 7.998 7.998s-3.578 7.998-7.998 7.998c-8.826 0-15.996 7.17-15.996 15.998 0 8.826 7.17 15.998 15.996 15.998a7.994 7.994 0 0 1 7.998 7.998 7.994 7.994 0 0 1-7.998 7.998zM815.938 336.036c-4.422 0-7.998-3.578-7.998-7.998s3.576-8 7.998-8c8.826 0 15.996-7.17 15.996-15.996a7.994 7.994 0 0 1 7.998-7.998c4.422 0 8 3.578 8 7.998 0 17.638-14.358 31.994-31.994 31.994z" fill=""/>
<path d="M839.932 312.042a7.994 7.994 0 0 1-7.998-7.998v-191.96a7.994 7.994 0 0 1 7.998-7.998c4.422 0 8 3.578 8 7.998v191.96a7.994 7.994 0 0 1-8 7.998zM783.944 144.076a7.994 7.994 0 0 1-7.998-7.998V64.092c0-4.42 3.578-8 7.998-8 4.422 0 8 3.578 8 8v71.986a7.994 7.994 0 0 1-8 7.998zM943.91 240.056a7.994 7.994 0 0 1-7.998-8v-191.96a7.994 7.994 0 0 1 7.998-7.998 7.994 7.994 0 0 1 7.998 7.998v191.96c0 4.422-3.576 8-7.998 8z" fill=""/>
<path d="M943.91 240.056h-103.978c-4.42 0-7.998-3.578-7.998-8s3.578-7.998 7.998-7.998h103.978c4.422 0 7.998 3.578 7.998 7.998s-3.576 8-7.998 8zM607.98 336.036a7.994 7.994 0 0 1-7.998-7.998v-191.96c0-4.422 3.578-7.998 7.998-7.998s7.998 3.576 7.998 7.998v191.96a7.994 7.994 0 0 1-7.998 7.998z" fill=""/>
<path d="M911.918 192.066a7.994 7.994 0 0 1-7.998-7.998v-95.98a7.992 7.992 0 0 1 7.998-7.998 7.994 7.994 0 0 1 7.998 7.998v95.98a7.994 7.994 0 0 1-7.998 7.998z" fill=""/>
<path d="M895.92 80.09h-31.992c-4.422 0-7.998-3.578-7.998-8s3.576-7.998 7.998-7.998h31.992c4.422 0 8 3.578 8 7.998s-3.578 8-8 8z" fill=""/>
<path d="M895.92 208.062h-31.992c-4.422 0-7.998-3.578-7.998-7.998s3.576-7.998 7.998-7.998h31.992c4.422 0 8 3.578 8 7.998s-3.578 7.998-8 7.998z" fill=""/>
<path d="M911.918 96.086c-13.232 0-23.996-10.764-23.996-23.996a7.994 7.994 0 0 1 7.998-7.998c4.422 0 8 3.578 8 7.998 0 4.406 3.592 8 7.998 8a7.994 7.994 0 0 1 7.998 7.998 7.994 7.994 0 0 1-7.998 7.998z" fill=""/>
<path d="M895.92 208.062a7.994 7.994 0 0 1-7.998-7.998c0-13.232 10.764-23.996 23.996-23.996a7.994 7.994 0 0 1 7.998 8 7.994 7.994 0 0 1-7.998 7.998 8.012 8.012 0 0 0-7.998 7.998 7.994 7.994 0 0 1-8 7.998z" fill=""/>
<path d="M639.974 288.046c-4.422 0-8-3.578-8-8v-95.98c0-4.422 3.578-8 8-8a7.994 7.994 0 0 1 7.998 8v95.98c0 4.422-3.578 8-7.998 8z" fill=""/>
<path d="M799.94 304.042h-143.968a7.994 7.994 0 0 1-7.998-7.998 7.992 7.992 0 0 1 7.998-7.998h143.968c4.422 0 8 3.576 8 7.998a7.994 7.994 0 0 1-8 7.998z" fill=""/>
<path d="M799.94 176.07h-143.968c-4.422 0-7.998-3.578-7.998-7.998s3.576-8 7.998-8h143.968c4.422 0 8 3.578 8 8s-3.578 7.998-8 7.998z" fill=""/>
<path d="M655.97 304.042a7.994 7.994 0 0 1-7.998-7.998 8.014 8.014 0 0 0-7.998-7.998c-4.422 0-8-3.578-8-8s3.578-8 8-8c13.23 0 23.994 10.764 23.994 23.996 0 4.422-3.576 8-7.998 8z" fill=""/>
<path d="M639.974 192.066c-4.422 0-8-3.578-8-7.998 0-4.422 3.578-8 8-8a8.014 8.014 0 0 0 7.998-7.998c0-4.42 3.576-8 7.998-8s7.998 3.578 7.998 8c0 13.232-10.762 23.996-23.994 23.996z" fill=""/>
<path d="M799.924 272.064c-22.056 0-39.99-17.95-39.99-40.006s17.934-39.992 39.99-39.992c4.422 0 8 3.578 8 7.998s-3.578 7.998-8 7.998c-13.23 0-23.994 10.764-23.994 23.996 0 13.248 10.764 24.01 23.994 24.01 4.422 0 8 3.578 8 7.998a7.994 7.994 0 0 1-8 7.998z" fill=""/>
<path d="M224.06 112.082c-30.87 0-55.988-25.12-55.988-55.988S193.192 0.106 224.06 0.106s55.988 25.12 55.988 55.988-25.12 55.988-55.988 55.988z m0-95.98c-22.058 0-39.992 17.934-39.992 39.992 0 22.058 17.934 39.992 39.992 39.992 22.056 0 39.992-17.934 39.992-39.992 0-22.056-17.934-39.992-39.992-39.992z" fill=""/>
<path d="M224.06 144.076c-30.87 0-55.988-25.12-55.988-55.988a7.992 7.992 0 0 1 7.998-7.998 7.994 7.994 0 0 1 7.998 7.998c0 22.058 17.934 39.992 39.992 39.992 22.056 0 39.992-17.934 39.992-39.992 0-4.422 3.578-7.998 7.998-7.998s8 3.576 8 7.998c-0.002 30.868-25.122 55.988-55.99 55.988z" fill=""/>
<path d="M176.07 96.086a7.994 7.994 0 0 1-7.998-7.998V56.094a7.994 7.994 0 0 1 7.998-7.998 7.994 7.994 0 0 1 7.998 7.998v31.994a7.994 7.994 0 0 1-7.998 7.998zM272.05 96.086a7.994 7.994 0 0 1-7.998-7.998V56.094c0-4.42 3.578-7.998 7.998-7.998s8 3.578 8 7.998v31.994a7.998 7.998 0 0 1-8 7.998zM224.06 80.09c-4.422 0-8-3.578-8-8V40.098a7.994 7.994 0 0 1 8-7.998 7.994 7.994 0 0 1 7.998 7.998v31.994a7.994 7.994 0 0 1-7.998 7.998zM240.056 141.326a7.994 7.994 0 0 1-7.998-7.998V101.334c0-4.42 3.578-8 7.998-8s7.998 3.578 7.998 8v31.994a7.992 7.992 0 0 1-7.998 7.998zM208.094 141.326c-4.42 0-8-3.578-8-7.998V101.334c0-4.42 3.578-8 8-8s7.998 3.578 7.998 8v31.994a7.992 7.992 0 0 1-7.998 7.998z" fill=""/>
<path d="M424.002 229.308c-26.464 0-47.99-21.528-47.99-47.99s21.526-47.99 47.99-47.99 47.99 21.528 47.99 47.99-21.526 47.99-47.99 47.99z m0-79.982c-17.638 0-31.994 14.356-31.994 31.994s14.356 31.994 31.994 31.994c17.636 0 31.994-14.356 31.994-31.994s-14.356-31.994-31.994-31.994z" fill=""/>
<path d="M424.002 261.286c-26.464 0-47.99-21.526-47.99-47.99a7.994 7.994 0 0 1 8-7.998 7.994 7.994 0 0 1 7.998 7.998c0 17.638 14.356 31.994 31.994 31.994 17.636 0 31.994-14.356 31.994-31.994a7.994 7.994 0 0 1 7.998-7.998c4.422 0 8 3.578 8 7.998-0.002 26.464-21.53 47.99-47.994 47.99zM424.002 197.314c-4.42 0-8-3.576-8-7.998v-16.012c0-4.422 3.578-7.998 8-7.998s8 3.576 8 7.998v16.012a7.994 7.994 0 0 1-8 7.998z" fill=""/>
<path d="M463.994 221.294a7.994 7.994 0 0 1-7.998-8V181.318a7.994 7.994 0 0 1 7.998-7.998c4.422 0 8 3.578 8 7.998v31.978a7.994 7.994 0 0 1-8 7.998zM384.012 221.294c-4.422 0-8-3.578-8-8V181.318a7.994 7.994 0 0 1 8-7.998 7.994 7.994 0 0 1 7.998 7.998v31.978a7.994 7.994 0 0 1-7.998 7.998zM424.002 261.286c-4.42 0-8-3.578-8-8v-31.976c0-4.422 3.578-8 8-8s8 3.578 8 8v31.976c0 4.422-3.578 8-8 8z" fill=""/>
</g>
</svg>